<?xml version="1.0" encoding="UTF-8" standalone="no"?>
<!-- Created with Inkscape (http://www.inkscape.org/) -->

<svg
   xmlns:dc="http://purl.org/dc/elements/1.1/"
   xmlns:cc="http://creativecommons.org/ns#"
   xmlns:rdf="http://www.w3.org/1999/02/22-rdf-syntax-ns#"
   xmlns:svg="http://www.w3.org/2000/svg"
   xmlns="http://www.w3.org/2000/svg"
   xmlns:sodipodi="http://sodipodi.sourceforge.net/DTD/sodipodi-0.dtd"
   xmlns:inkscape="http://www.inkscape.org/namespaces/inkscape"
   width="329.13803mm"
   height="74.62542mm"
   viewBox="0 0 329.13803 74.62542"
   version="1.1"
   id="svg8"
   inkscape:version="0.92.2 (5c3e80d, 2017-08-06)"
   sodipodi:docname="logo-mobile-white-40anys.svg">
  <defs
     id="defs2" />
  <sodipodi:namedview
     id="base"
     pagecolor="#ffffff"
     bordercolor="#666666"
     borderopacity="1.0"
     inkscape:pageopacity="0.0"
     inkscape:pageshadow="2"
     inkscape:zoom="0.49497475"
     inkscape:cx="888.77373"
     inkscape:cy="-219.35108"
     inkscape:document-units="mm"
     inkscape:current-layer="layer1"
     showgrid="true"
     inkscape:window-width="1920"
     inkscape:window-height="1017"
     inkscape:window-x="-8"
     inkscape:window-y="-8"
     inkscape:window-maximized="1"
     fit-margin-top="0"
     fit-margin-left="0"
     fit-margin-right="0"
     fit-margin-bottom="0"
     inkscape:pagecheckerboard="true">
    <inkscape:grid
       type="xygrid"
       id="grid1755"
       originx="2.3607759e-008"
       originy="0.0013823037" />
  </sodipodi:namedview>
  <metadata
     id="metadata5">
    <rdf:RDF>
      <cc:Work
         rdf:about="">
        <dc:format>image/svg+xml</dc:format>
        <dc:type
           rdf:resource="http://purl.org/dc/dcmitype/StillImage" />
        <dc:title />
      </cc:Work>
    </rdf:RDF>
  </metadata>
  <g
     inkscape:groupmode="layer"
     id="layer4"
     inkscape:label="Fondo"
     style="display:none"
     transform="translate(7.9967175,-32.460169)">
    <g
       id="layer1-6"
       inkscape:label="Fondo"
       style="display:inline"
       transform="matrix(0.3527778,0,0,0.3527778,-39.642325,-34.786718)">
      <path
         inkscape:connector-curvature="0"
         id="path283"
         d="M 795.27734,448.64063 H 46.609375 v -302 H 795.27734 Z m 0,0"
         style="fill:#ae1e1e;fill-opacity:1;fill-rule:nonzero;stroke:none"
         inkscape:export-xdpi="13.75"
         inkscape:export-ydpi="13.75" />
    </g>
  </g>
  <g
     inkscape:label="Layer 1"
     inkscape:groupmode="layer"
     id="layer1"
     style="display:inline"
     transform="translate(7.9967175,-32.460169)">
    <path
       inkscape:export-ydpi="35.540001"
       inkscape:export-xdpi="35.540001"
       style="fill:#ffffff;fill-opacity:1;fill-rule:nonzero;stroke:none;stroke-width:0.35277778"
       d="M 81.44314,107.07405 H 80.606669 V 32.460169 h 0.836471 z m 0,0"
       id="path285"
       inkscape:connector-curvature="0" />
    <path
       inkscape:export-ydpi="35.540001"
       inkscape:export-xdpi="35.540001"
       style="fill:#ffffff;fill-opacity:1;fill-rule:nonzero;stroke:none;stroke-width:0.35277778"
       d="m 142.97806,87.442517 1.45934,0.268718 v 0.472669 c -0.67937,-0.03309 -1.42489,-0.05099 -2.1208,-0.05099 -0.71245,0 -1.45934,0.01792 -2.1208,0.05099 v -0.472669 l 1.44143,-0.268718 v -9.651778 l -1.44143,-0.270097 v -0.471287 c 0.66146,0.03309 1.40835,0.04961 2.1208,0.04961 0.69591,0 1.44143,-0.01654 2.1208,-0.04961 v 0.471287 l -1.45934,0.270097 z m 0,0"
       id="path287"
       inkscape:connector-curvature="0" />
    <path
       inkscape:export-ydpi="35.540001"
       inkscape:export-xdpi="35.540001"
       style="fill:#ffffff;fill-opacity:1;fill-rule:nonzero;stroke:none;stroke-width:0.35277778"
       d="m 148.28764,87.442517 1.44143,0.268718 v 0.472669 c -1.32154,-0.06753 -2.84978,-0.06753 -4.18924,0 v -0.472669 l 1.45934,-0.268718 V 77.31807 l -1.28984,-0.268715 v -0.472669 c 0.79788,0 1.62884,-0.06752 2.40881,-0.186034 h 0.1695 z m 0,0"
       id="path289"
       inkscape:connector-curvature="0" />
    <path
       inkscape:export-ydpi="35.540001"
       inkscape:export-xdpi="35.540001"
       style="fill:#ffffff;fill-opacity:1;fill-rule:nonzero;stroke:none;stroke-width:0.35277778"
       d="m 153.1218,87.442517 1.4428,0.268718 v 0.472669 c -1.32291,-0.06753 -2.84978,-0.06753 -4.19061,0 v -0.472669 l 1.45934,-0.268718 V 77.31807 l -1.28984,-0.268715 v -0.472669 c 0.79788,0 1.62884,-0.06752 2.40881,-0.186034 h 0.1695 z m 0,0"
       id="path291"
       inkscape:connector-curvature="0" />
    <path
       inkscape:export-ydpi="35.540001"
       inkscape:export-xdpi="35.540001"
       style="fill:#ffffff;fill-opacity:1;fill-rule:nonzero;stroke:none;stroke-width:0.35277778"
       d="m 156.70194,83.341475 4.03627,-0.270093 c 0,0 0.051,-0.133671 0.051,-0.708311 0,-1.164446 -0.69591,-1.772158 -1.5434,-1.772158 -1.39182,0 -2.30822,1.233343 -2.54386,2.750562 m -1.32429,0.963249 c 0,-2.869074 1.93476,-4.219553 3.95359,-4.219553 1.35599,0 2.79879,0.574643 2.79879,2.632053 l -0.2384,1.047309 h -5.25859 l -0.0165,0.303171 c 0,2.175922 0.98392,3.272839 2.78226,3.272839 1.05145,0 1.86586,-0.235645 2.57831,-0.658703 l 0.16951,0.405144 c -0.49196,0.423058 -1.62884,1.266416 -3.15433,1.266416 -2.39365,0 -3.61459,-1.772155 -3.61459,-4.048676"
       id="path293"
       inkscape:connector-curvature="0" />
    <path
       inkscape:export-ydpi="35.540001"
       inkscape:export-xdpi="35.540001"
       style="fill:#ffffff;fill-opacity:1;fill-rule:nonzero;stroke:none;stroke-width:0.35277778"
       d="m 167.70971,86.243626 c 0,-1.09692 -1.01699,-1.248505 -1.93339,-1.602658 -1.25401,-0.489204 -2.25585,-0.843362 -2.25585,-2.277897 0,-1.3491 1.06936,-2.2779 2.73128,-2.2779 0.76343,0 1.61092,0.203951 2.25584,0.523656 l -0.49195,2.075325 -0.49196,-0.08406 -0.11852,-1.688099 c 0,0 -0.34037,-0.32108 -1.23885,-0.32108 -0.96601,0 -1.52549,0.507118 -1.52549,1.350475 0,1.096921 0.966,1.215433 1.84795,1.518599 1.20441,0.421679 2.51078,0.844737 2.51078,2.361957 0,1.602659 -1.49241,2.531456 -3.01928,2.531456 -1.71428,0 -2.4598,-0.523653 -2.4598,-0.523653 l 0.49196,-2.159384 0.49196,0.08406 0.11851,1.688095 c 0,0 0.35692,0.403765 1.37391,0.403765 1.13688,0 1.7129,-0.673859 1.7129,-1.602656"
       id="path295"
       inkscape:connector-curvature="0" />
    <path
       inkscape:export-ydpi="35.540001"
       inkscape:export-xdpi="35.540001"
       style="fill:#ffffff;fill-opacity:1;fill-rule:nonzero;stroke:none;stroke-width:0.35277778"
       d="m 177.02249,82.39752 v 5.129057 h 1.73082 c 2.03536,0 2.61138,-1.231964 2.61138,-2.564529 0,-1.451074 -0.88194,-2.564528 -3.10334,-2.564528 z m 0.9164,-0.658704 c 2.23931,0 2.93522,-0.540191 2.93522,-1.97335 0,-1.316024 -0.55948,-2.058787 -2.44326,-2.058787 h -1.40836 v 4.032137 z m 2.18832,0.253559 c 1.96784,0.540191 2.66375,1.772158 2.66375,3.053733 0,1.788696 -1.20578,3.172245 -3.59668,3.172245 -1.22094,0 -2.10289,-0.08406 -2.98483,-0.08406 -0.81442,0 -1.17133,0 -1.96784,0.04961 v -0.47129 l 1.42489,-0.271473 v -9.650402 l -1.42489,-0.268718 v -0.474045 c 0.49196,0.03447 0.98392,0.05099 1.47588,0.05099 0.89848,0 1.72944,-0.06753 2.86632,-0.06753 2.42535,0 3.73173,0.877813 3.73173,2.565908 0,1.332565 -0.95085,2.006424 -2.18833,2.395029"
       id="path297"
       inkscape:connector-curvature="0" />
    <path
       inkscape:export-ydpi="35.540001"
       inkscape:export-xdpi="35.540001"
       style="fill:#ffffff;fill-opacity:1;fill-rule:nonzero;stroke:none;stroke-width:0.35277778"
       d="m 186.38626,84.995121 c -0.91501,0 -1.1355,0.708315 -1.1355,1.26642 0,0.691772 0.28801,1.230587 1.10243,1.230587 1.20303,0 1.91685,-0.624251 2.11942,-0.808909 v -1.788692 c -0.11713,0.03309 -0.3886,0.118508 -0.81304,0.118508 -0.66146,0 -0.93431,-0.01792 -1.27331,-0.01792 m 2.08635,-2.175923 c 0,-1.350475 -0.55948,-2.058786 -1.5434,-2.058786 -0.81304,0 -1.33946,0.505739 -1.33946,0.505739 l -0.1185,1.737705 -0.45889,0.118513 -0.76206,-1.451074 c 0.69453,-0.808909 2.08635,-1.586125 3.52778,-1.586125 1.30638,0 2.01745,0.844741 2.01745,2.277901 v 5.079446 l 1.23886,0.270097 v 0.47129 c -0.37208,-0.01655 -0.72899,-0.03447 -1.0859,-0.03447 -0.43959,0 -0.86403,0.01792 -1.28846,0.03447 l -0.18742,-1.079006 c -0.35553,0.403765 -1.23748,1.248502 -2.47633,1.248502 -1.27193,0 -1.98438,-0.87781 -1.98438,-2.142846 0,-1.04731 0.69453,-1.872757 1.83279,-1.872757 0.93293,0 1.72944,0.303171 2.62792,0.219111 z m 0,0"
       id="path299"
       inkscape:connector-curvature="0" />
    <path
       inkscape:export-ydpi="35.540001"
       inkscape:export-xdpi="35.540001"
       style="fill:#ffffff;fill-opacity:1;fill-rule:nonzero;stroke:none;stroke-width:0.35277778"
       d="m 194.7165,87.442517 1.44005,0.268718 v 0.472669 c -1.32153,-0.06753 -2.8484,-0.06753 -4.18923,0 v -0.472669 l 1.45934,-0.268718 V 77.31807 l -1.28984,-0.268715 v -0.472669 c 0.79788,0 1.62884,-0.06752 2.41019,-0.186034 h 0.16949 z m 0,0"
       id="path301"
       inkscape:connector-curvature="0" />
    <path
       inkscape:export-ydpi="35.540001"
       inkscape:export-xdpi="35.540001"
       style="fill:#ffffff;fill-opacity:1;fill-rule:nonzero;stroke:none;stroke-width:0.35277778"
       d="m 198.29527,83.341475 4.03765,-0.270093 c 0,0 0.051,-0.133671 0.051,-0.708311 0,-1.164446 -0.69729,-1.772158 -1.54478,-1.772158 -1.39182,0 -2.30684,1.233343 -2.54386,2.750562 m -1.3243,0.963249 c 0,-2.869074 1.93477,-4.219553 3.95359,-4.219553 1.35599,0 2.80018,0.574643 2.80018,2.632053 l -0.23978,1.047309 h -5.25859 l -0.0165,0.303171 c 0,2.175922 0.98392,3.272839 2.78226,3.272839 1.05283,0 1.86587,-0.235645 2.57831,-0.658703 l 0.1695,0.405144 c -0.49196,0.423058 -1.62884,1.266416 -3.15433,1.266416 -2.39227,0 -3.61459,-1.772155 -3.61459,-4.048676"
       id="path303"
       inkscape:connector-curvature="0" />
    <path
       inkscape:export-ydpi="35.540001"
       inkscape:export-xdpi="35.540001"
       style="fill:#ffffff;fill-opacity:1;fill-rule:nonzero;stroke:none;stroke-width:0.35277778"
       d="m 207.33658,84.995121 c -0.91502,0 -1.13688,0.708315 -1.13688,1.26642 0,0.691772 0.28801,1.230587 1.10243,1.230587 1.2044,0 1.91685,-0.624251 2.1208,-0.808909 v -1.788692 c -0.11851,0.03309 -0.39137,0.118508 -0.81442,0.118508 -0.66146,0 -0.93294,-0.01792 -1.27193,-0.01792 m 2.08635,-2.175923 c 0,-1.350475 -0.55949,-2.058786 -1.5434,-2.058786 -0.81443,0 -1.34084,0.505739 -1.34084,0.505739 l -0.11713,1.737705 -0.46026,0.118513 -0.76206,-1.451074 c 0.69591,-0.808909 2.08635,-1.586125 3.52916,-1.586125 1.305,0 2.01745,0.844741 2.01745,2.277901 v 5.079446 l 1.23885,0.270097 v 0.47129 c -0.37345,-0.01655 -0.72898,-0.03447 -1.08589,-0.03447 -0.44098,0 -0.86541,0.01792 -1.28985,0.03447 l -0.18603,-1.079006 c -0.35691,0.403765 -1.23886,1.248502 -2.47772,1.248502 -1.27193,0 -1.98437,-0.87781 -1.98437,-2.142846 0,-1.04731 0.69591,-1.872757 1.83279,-1.872757 0.93293,0 1.73082,0.303171 2.6293,0.219111 z m 0,0"
       id="path305"
       inkscape:connector-curvature="0" />
    <path
       inkscape:export-ydpi="35.540001"
       inkscape:export-xdpi="35.540001"
       style="fill:#ffffff;fill-opacity:1;fill-rule:nonzero;stroke:none;stroke-width:0.35277778"
       d="m 217.76833,80.895459 c -1.37253,0 -2.10289,1.367014 -2.10289,1.367014 v 5.180044 l 1.7818,0.270097 v 0.47129 c -1.32429,-0.06753 -3.19016,-0.06753 -4.52961,0 v -0.47129 l 1.45797,-0.270097 v -6.428546 l -1.28847,-0.270097 v -0.472666 c 0.79789,0 1.62884,-0.06753 2.40881,-0.186037 h 0.1695 v 1.553051 h 0.0345 c 0.0165,0.01655 0.7965,-1.553051 2.35782,-1.553051 0.76343,0 1.06798,0.337622 1.06798,0.337622 l -0.64492,2.142846 -0.5085,-0.04961 z m 0,0"
       id="path307"
       inkscape:connector-curvature="0" />
    <path
       inkscape:export-ydpi="35.540001"
       inkscape:export-xdpi="35.540001"
       style="fill:#ffffff;fill-opacity:1;fill-rule:nonzero;stroke:none;stroke-width:0.35277778"
       d="m 224.36775,86.243626 c 0,-1.09692 -1.01837,-1.248505 -1.93476,-1.602658 -1.25402,-0.489204 -2.25447,-0.843362 -2.25447,-2.277897 0,-1.3491 1.06797,-2.2779 2.72989,-2.2779 0.76343,0 1.6123,0.203951 2.25585,0.523656 l -0.49196,2.075325 -0.49196,-0.08406 -0.11713,-1.688099 c 0,0 -0.34038,-0.32108 -1.24024,-0.32108 -0.966,0 -1.52549,0.507118 -1.52549,1.350475 0,1.096921 0.96601,1.215433 1.84933,1.518599 1.2044,0.421679 2.50941,0.844737 2.50941,2.361957 0,1.602659 -1.49242,2.531456 -3.0179,2.531456 -1.71429,0 -2.4598,-0.523653 -2.4598,-0.523653 l 0.49196,-2.159384 0.49058,0.08406 0.11851,1.688095 c 0,0 0.35691,0.403765 1.37528,0.403765 1.1355,0 1.7129,-0.673859 1.7129,-1.602656"
       id="path309"
       inkscape:connector-curvature="0" />
    <path
       inkscape:export-ydpi="35.540001"
       inkscape:export-xdpi="35.540001"
       style="fill:#ffffff;fill-opacity:1;fill-rule:nonzero;stroke:none;stroke-width:0.35277778"
       d="m 101.37646,86.632232 v -3.593923 c 0,-1.940278 -1.11896,-2.447396 -1.933387,-2.447396 -1.763889,0 -2.647209,1.350475 -2.647209,3.628372 0,2.193837 1.051443,3.290757 2.408809,3.290757 0.814427,0 1.696367,-0.439593 2.171787,-0.87781 m 1.28984,0.759298 1.61093,0.21911 v 0.472666 c -0.96738,0.01655 -1.81487,0.135047 -2.73127,0.270094 h -0.1695 v -1.180977 h -0.0689 c 0,0 -0.98392,1.180977 -2.678906,1.180977 -2.087729,0 -3.206694,-1.604035 -3.206694,-4.134115 0,-2.699575 2.018824,-4.134114 4.105173,-4.134114 0.593937,0 1.373907,0.169499 1.849327,0.505742 V 77.31807 l -1.28984,-0.268715 v -0.472669 c 0.81442,0 1.62884,-0.06752 2.42672,-0.186034 h 0.15296 z m 0,0"
       id="path311"
       inkscape:connector-curvature="0" />
    <path
       inkscape:export-ydpi="35.540001"
       inkscape:export-xdpi="35.540001"
       style="fill:#ffffff;fill-opacity:1;fill-rule:nonzero;stroke:none;stroke-width:0.35277778"
       d="m 106.41457,83.341475 4.03765,-0.270093 c 0,0 0.051,-0.133671 0.051,-0.708311 0,-1.164446 -0.69591,-1.772158 -1.54478,-1.772158 -1.39044,0 -2.30684,1.233343 -2.54386,2.750562 m -1.32292,0.963249 c 0,-2.869074 1.93339,-4.219553 3.95222,-4.219553 1.35736,0 2.79879,0.574643 2.79879,2.632053 l -0.23702,1.047309 h -5.25859 l -0.0179,0.303171 c 0,2.175922 0.98392,3.272839 2.78226,3.272839 1.05282,0 1.86586,-0.235645 2.57831,-0.658703 l 0.1695,0.405144 c -0.49059,0.423058 -1.62747,1.266416 -3.15433,1.266416 -2.39228,0 -3.61322,-1.772155 -3.61322,-4.048676"
       id="path313"
       inkscape:connector-curvature="0" />
    <path
       inkscape:export-ydpi="35.540001"
       inkscape:export-xdpi="35.540001"
       style="fill:#ffffff;fill-opacity:1;fill-rule:nonzero;stroke:none;stroke-width:0.35277778"
       d="m 119.62858,87.442517 1.44281,0.268718 v 0.472669 c -1.32292,-0.06753 -2.85117,-0.06753 -4.19062,0 v -0.472669 l 1.45934,-0.268718 V 77.31807 l -1.28984,-0.268715 v -0.472669 c 0.7965,0 1.62884,-0.06752 2.40881,-0.186034 h 0.1695 z m 0,0"
       id="path315"
       inkscape:connector-curvature="0" />
    <path
       inkscape:export-ydpi="35.540001"
       inkscape:export-xdpi="35.540001"
       style="fill:#ffffff;fill-opacity:1;fill-rule:nonzero;stroke:none;stroke-width:0.35277778"
       d="m 123.20734,83.341475 4.03766,-0.270093 c 0,0 0.051,-0.133671 0.051,-0.708311 0,-1.164446 -0.69591,-1.772158 -1.5434,-1.772158 -1.39182,0 -2.30683,1.233343 -2.54524,2.750562 m -1.32291,0.963249 c 0,-2.869074 1.93338,-4.219553 3.95359,-4.219553 1.35599,0 2.79742,0.574643 2.79742,2.632053 l -0.23565,1.047309 h -5.25997 l -0.0165,0.303171 c 0,2.175922 0.98392,3.272839 2.78225,3.272839 1.05145,0 1.86449,-0.235645 2.57832,-0.658703 l 0.16949,0.405144 c -0.49196,0.423058 -1.62884,1.266416 -3.1557,1.266416 -2.3909,0 -3.61322,-1.772155 -3.61322,-4.048676"
       id="path317"
       inkscape:connector-curvature="0" />
    <path
       inkscape:export-ydpi="35.540001"
       inkscape:export-xdpi="35.540001"
       style="fill:#ffffff;fill-opacity:1;fill-rule:nonzero;stroke:none;stroke-width:0.35277778"
       d="m 134.21787,86.243626 c 0,-1.09692 -1.01837,-1.248505 -1.93477,-1.602658 -1.25539,-0.489204 -2.25584,-0.843362 -2.25584,-2.277897 0,-1.3491 1.06797,-2.2779 2.73127,-2.2779 0.76343,0 1.6123,0.203951 2.25584,0.523656 l -0.49196,2.075325 -0.49195,-0.08406 -0.11852,-1.688099 c 0,0 -0.33899,-0.32108 -1.23885,-0.32108 -0.96601,0 -1.52549,0.507118 -1.52549,1.350475 0,1.096921 0.96601,1.215433 1.84795,1.518599 1.2044,0.421679 2.51079,0.844737 2.51079,2.361957 0,1.602659 -1.49242,2.531456 -3.01791,2.531456 -1.71566,0 -2.46117,-0.523653 -2.46117,-0.523653 l 0.49196,-2.159384 0.49195,0.08406 0.11989,1.688095 c 0,0 0.35554,0.403765 1.37253,0.403765 1.13688,0 1.71428,-0.673859 1.71428,-1.602656"
       id="path319"
       inkscape:connector-curvature="0" />
    <path
       inkscape:export-ydpi="35.540001"
       inkscape:export-xdpi="35.540001"
       style="fill:#ffffff;fill-opacity:1;fill-rule:nonzero;stroke:none;stroke-width:0.35277778"
       d="m 103.48624,71.934077 c -5.003658,0 -8.05739,-1.919608 -8.05739,-7.62193 V 52.239153 h 4.62469 v 11.897981 c 0,2.822223 1.16307,3.927412 3.52089,3.927412 2.18144,0 3.31556,-1.134128 3.31556,-3.927412 V 52.472043 l 4.65502,-0.756543 v 12.596647 c 0,5.643066 -3.08405,7.62193 -8.05877,7.62193"
       id="path321"
       inkscape:connector-curvature="0" />
    <path
       inkscape:export-ydpi="35.540001"
       inkscape:export-xdpi="35.540001"
       style="fill:#ffffff;fill-opacity:1;fill-rule:nonzero;stroke:none;stroke-width:0.35277778"
       d="m 122.20689,71.439359 v -8.902125 c 0,-1.367014 -0.43546,-2.007803 -1.48277,-2.007803 -1.2802,0 -2.26963,1.42627 -2.24069,1.455209 v 9.454719 H 113.7416 V 57.912536 l 3.72346,-0.756542 0.7276,1.599903 c 0,-0.02893 1.57097,-1.599903 4.04454,-1.599903 2.38539,0 4.71152,1.105185 4.71152,4.537879 v 9.745486 z m 0,0"
       id="path323"
       inkscape:connector-curvature="0" />
    <path
       inkscape:export-ydpi="35.540001"
       inkscape:export-xdpi="35.540001"
       style="fill:#ffffff;fill-opacity:1;fill-rule:nonzero;stroke:none;stroke-width:0.35277778"
       d="m 132.04057,55.7876 c -1.57097,0 -2.41432,-0.959114 -2.41432,-2.297186 0,-1.338076 0.84335,-2.29857 2.41432,-2.29857 1.5999,0 2.41432,0.960494 2.41432,2.29857 0,1.338072 -0.81442,2.297186 -2.41432,2.297186 m -2.50252,15.651759 V 57.912536 l 4.74183,-0.756542 v 14.283365 z m 0,0"
       id="path325"
       inkscape:connector-curvature="0" />
    <path
       inkscape:export-ydpi="35.540001"
       inkscape:export-xdpi="35.540001"
       style="fill:#ffffff;fill-opacity:1;fill-rule:nonzero;stroke:none;stroke-width:0.35277778"
       d="m 144.75297,71.439359 h -4.68257 l -4.5682,-13.526823 4.42212,-0.756542 2.8801,9.104697 2.67615,-8.698178 h 4.53788 z m 0,0"
       id="path327"
       inkscape:connector-curvature="0" />
    <path
       inkscape:export-ydpi="35.540001"
       inkscape:export-xdpi="35.540001"
       style="fill:#ffffff;fill-opacity:1;fill-rule:nonzero;stroke:none;stroke-width:0.35277778"
       d="m 154.40889,63.031949 h 3.98528 c -0.0289,-2.007803 -0.61185,-2.909038 -1.83279,-2.909038 -1.25126,0 -2.06568,0.989429 -2.15249,2.909038 m -0.0868,2.298569 c 0,1.890667 0.90124,3.199804 2.99585,3.199804 2.35645,0 4.1603,-1.018371 4.1603,-1.047309 l 1.24988,3.082671 c 0,0 -2.58933,1.339452 -6.13778,1.339452 -5.00366,0 -7.0404,-2.677527 -7.0404,-7.389041 0,-5.003655 3.02617,-7.360101 7.15615,-7.360101 4.51032,0 5.93521,2.909037 6.02203,6.57462 l -0.46578,1.599904 z m 0,0"
       id="path329"
       inkscape:connector-curvature="0" />
    <path
       inkscape:export-ydpi="35.540001"
       inkscape:export-xdpi="35.540001"
       style="fill:#ffffff;fill-opacity:1;fill-rule:nonzero;stroke:none;stroke-width:0.35277778"
       d="m 173.0565,60.995207 c 0,0 -0.55397,-0.261824 -1.25126,-0.261824 -1.77491,0 -2.5604,1.397328 -2.5604,1.397328 v 9.308648 h -4.74182 V 57.912536 l 4.36424,-0.756542 0.11576,2.065679 c 0.34864,-0.960494 1.77491,-2.065679 3.31556,-2.065679 1.19338,0 1.89204,0.435461 1.89204,0.435461 z m 0,0"
       id="path331"
       inkscape:connector-curvature="0" />
    <path
       inkscape:export-ydpi="35.540001"
       inkscape:export-xdpi="35.540001"
       style="fill:#ffffff;fill-opacity:1;fill-rule:nonzero;stroke:none;stroke-width:0.35277778"
       d="m 179.22322,71.905136 c -3.31556,0 -5.26548,-1.04731 -5.55625,-1.222319 l 1.04731,-3.112989 c 0.29077,0.203951 2.12356,1.309137 3.98528,1.309137 1.07625,0 1.62885,-0.494714 1.62885,-1.25126 0,-1.948544 -6.2246,-1.803852 -6.2246,-6.224599 0,-2.966914 2.61689,-4.247112 5.78914,-4.247112 3.3445,0 4.97471,1.016991 4.97471,1.016991 l -1.10656,3.112989 c -0.0289,-0.02893 -1.54065,-1.105186 -3.60633,-1.105186 -1.07625,0 -1.62884,0.494714 -1.62884,1.222318 0,0.785485 0.93018,1.192005 2.21037,1.715658 2.61828,1.01837 3.98529,1.745975 3.98529,4.537883 0,2.589332 -2.06568,4.248489 -5.49837,4.248489"
       id="path333"
       inkscape:connector-curvature="0" />
    <path
       inkscape:export-ydpi="35.540001"
       inkscape:export-xdpi="35.540001"
       style="fill:#ffffff;fill-opacity:1;fill-rule:nonzero;stroke:none;stroke-width:0.35277778"
       d="m 188.53049,55.7876 c -1.57096,0 -2.41432,-0.959114 -2.41432,-2.297186 0,-1.338076 0.84336,-2.29857 2.41432,-2.29857 1.5999,0 2.4157,0.960494 2.4157,2.29857 0,1.338072 -0.8158,2.297186 -2.4157,2.297186 m -2.50114,15.651759 V 57.912536 l 4.74183,-0.756542 v 14.283365 z m 0,0"
       id="path335"
       inkscape:connector-curvature="0" />
    <path
       inkscape:export-ydpi="35.540001"
       inkscape:export-xdpi="35.540001"
       style="fill:#ffffff;fill-opacity:1;fill-rule:nonzero;stroke:none;stroke-width:0.35277778"
       d="m 202.20614,70.39205 c 0,0 -1.54202,1.513086 -4.56819,1.513086 -1.89067,0 -3.66559,-0.960491 -3.66559,-3.578765 v -8.20346 h -2.0643 l 0.52366,-2.269631 1.54064,-0.290767 0.49472,-3.49057 4.0721,-0.465776 v 3.956346 h 3.20118 v 2.560398 h -3.20118 v 6.981141 c 0,1.018371 0.29215,1.309137 0.93156,1.309137 0.49471,0 1.1355,-0.290766 1.57234,-0.610471 z m 0,0"
       id="path337"
       inkscape:connector-curvature="0" />
    <path
       inkscape:export-ydpi="35.540001"
       inkscape:export-xdpi="35.540001"
       style="fill:#ffffff;fill-opacity:1;fill-rule:nonzero;stroke:none;stroke-width:0.35277778"
       d="m 210.20565,65.592343 c -2.96691,0.02893 -3.25768,1.570965 -3.25768,2.29719 0,0.785481 0.3197,1.338076 1.192,1.338076 1.25126,0 2.06568,-1.27882 2.06568,-1.27882 z m 1.04731,5.847016 -0.52365,-1.42627 c -0.11576,0.117133 -1.45383,1.892047 -4.21818,1.892047 -2.44326,0 -3.92741,-1.36839 -3.92741,-3.607704 0,-1.395952 0.34865,-5.061532 7.62193,-5.061532 v -1.164445 c 0,-1.249878 -0.90123,-1.628839 -2.23931,-1.628839 -1.9196,0 -3.7524,1.134124 -3.7524,1.134124 l -1.19338,-2.878723 c 0.11713,-0.117133 2.32751,-1.542023 6.10885,-1.542023 3.66558,0 5.78913,1.715657 5.78913,4.857584 v 9.425781 z m 0,0"
       id="path339"
       inkscape:connector-curvature="0" />
    <path
       inkscape:export-ydpi="35.540001"
       inkscape:export-xdpi="35.540001"
       style="fill:#ffffff;fill-opacity:1;fill-rule:nonzero;stroke:none;stroke-width:0.35277778"
       d="m 225.71134,70.39205 c 0,0 -1.54065,1.513086 -4.56682,1.513086 -1.89067,0 -3.66558,-0.960491 -3.66558,-3.578765 v -8.20346 h -2.0643 l 0.52365,-2.269631 1.54065,-0.290767 0.49472,-3.49057 4.07347,-0.465776 v 3.956346 h 3.19981 v 2.560398 h -3.19981 v 6.981141 c 0,1.018371 0.29077,1.309137 0.93018,1.309137 0.49472,0 1.1355,-0.290766 1.57097,-0.610471 z m 0,0"
       id="path341"
       inkscape:connector-curvature="0" />
    <g
       id="layer3"
       inkscape:label="RomboiLogo"
       transform="matrix(0.35277779,0,0,0.35277779,-39.642326,-34.786718)">
      <path
         inkscape:connector-curvature="0"
         style="fill:#ffffff;fill-opacity:1;fill-rule:nonzero;stroke:none;stroke-width:1.33333337"
         d="m 260.62695,254.16211 c -5.08203,0 -10.16276,1.9388 -14.04297,5.81641 l -121.1621,121.1621 c -7.75524,7.75525 -7.75524,20.32878 0,28.08399 l 121.1621,121.16016 c 7.76042,7.76042 20.33265,7.76042 28.0879,0 l 121.1621,-121.16016 c 7.75522,-7.75521 7.75522,-20.32874 0,-28.08399 l -121.1621,-121.1621 c -3.88025,-3.87761 -8.96289,-5.81641 -14.04493,-5.81641 z m -1.02343,65.51562 c 22.375,0 29.77669,20.16537 26.81836,26.08204 -10.35419,-13.31771 -41.80275,-14.60809 -48.83399,-0.73829 -9.61459,2.22395 2.40104,-25.34375 22.01563,-25.34375 z m 44.5996,43.94141 c 14.49484,0 22.36524,4.89584 22.36524,14.5 0,7.68229 -5.56314,11.5267 -12.95898,13.63086 v 0.19727 c 11.51562,2.97396 15.74414,9.98437 15.74414,17.375 0,10.46874 -6.8112,17.95898 -22.75391,17.95898 -7.48437,0 -11.09896,-0.48437 -17.71875,-0.48437 -4.51043,0 -6.3392,0.19205 -10.08398,0.29101 v -3.26953 l 6.24414,-1.63086 v -53.57227 l -6.24414,-1.63085 v -3.26563 c 0.67186,0.0937 5.18294,0.28711 10.08398,0.28711 8.34896,-0.0937 8.88998,-0.38672 15.32226,-0.38672 z m -118.80664,0.10938 c 2.73438,0.0937 7.23438,0.29296 11.46875,0.29296 4.41146,0 9.34245,-0.10026 12.08204,-0.29296 v 3.25586 l -5.73438,1.9121 v 31.1875 c 0,15.3073 3.6823,22.03516 13.29688,22.03516 10.68229,0 14.4375,-8.16537 14.4375,-22.03516 v -31.2871 l -8.11329,-1.8125 v -3.25586 c 2.82292,0.0937 6.71224,0.29296 10.76954,0.29296 4.14582,0 7.23047,-0.10026 10.05859,-0.29296 v 3.25586 l -7.76563,1.8125 v 32.24414 c 0,17.21874 -7.74999,26.7871 -21.76562,26.7871 -16.32292,0 -23.08398,-10.23502 -23.08398,-26.7871 v -32.24414 l -5.6504,-1.8125 z m 62.36329,0 c 2.97917,0.18752 7.96875,0.2871 12.57812,0.2871 4.70833,0 10.17838,-0.0996 13.15234,-0.2871 v 3.26562 l -6.23437,1.91797 v 53 l 6.23437,1.92187 v 3.25977 c -2.97396,-0.18751 -7.96484,-0.28125 -12.66796,-0.28125 -4.60938,0 -10.08333,0.18752 -13.0625,0.28125 v -3.25977 L 254,421.91211 v -53.09375 l -6.24023,-1.82422 z m 50.52734,4.21484 v 22.27539 h 2.10937 c 9.98958,0 12.44727,-2.69206 12.44727,-11.13477 0,-7.58854 -3.26628,-11.14062 -10.17773,-11.14062 z m 0,26.40625 v 28.60937 h 6.30078 c 8.54167,0 11.03711,-6.43294 11.03711,-14.11523 0,-8.45312 -4.41602,-14.49414 -13.91602,-14.49414 z m -34.97266,49.92969 c 0.38898,-0.002 0.74268,0.19775 1.05469,0.64843 5,22.19793 13.69271,17.01563 28.67188,9.98438 10.72396,7.95833 -36.25522,30.34376 -32.1875,4.625 -8.32292,5.55209 -8.32162,12.02474 -15.34766,11.28516 l -4.99609,-13.13477 c -4.2552,4.2552 -3.69727,6.84895 -8.32227,12.57812 -10.17188,-6.84374 5.92187,-18.12434 9.98438,-24.41601 4.81249,7.77083 4.2552,8.13412 7.03124,12.39453 3.35125,5.02686 10.35119,-13.94179 14.11133,-13.96484 z"
         transform="scale(0.74999997)"
         id="path1296"
         inkscape:export-xdpi="35.540001"
         inkscape:export-ydpi="35.540001" />
      <path
         inkscape:connector-curvature="0"
         style="fill:#000000;fill-opacity:1;fill-rule:nonzero;stroke:none"
         d="M 206.00391,397.78906"
         id="path343"
         inkscape:export-xdpi="35.540001"
         inkscape:export-ydpi="35.540001" />
    </g>
    <path
       inkscape:export-ydpi="35.540001"
       inkscape:export-xdpi="35.540001"
       style="display:inline;fill:#ffffff;fill-opacity:1;fill-rule:nonzero;stroke:none;stroke-width:0.35277778"
       d="m 241.54809,107.08559 h -0.83647 V 32.471707 h 0.83647 z m 0,0"
       id="path285-2"
       inkscape:connector-curvature="0" />
    <g
       aria-label="#UIB_
5segles_
40anys"
       style="font-style:normal;font-variant:normal;font-weight:normal;font-stretch:normal;font-size:10.58333302px;line-height:1.25;font-family:UIBsans;-inkscape-font-specification:UIBsans;letter-spacing:0px;word-spacing:0px;fill:#ffffff;fill-opacity:1;stroke:none;stroke-width:0.26458332"
       id="text973">
      <path
         d="m 263.65105,48.667129 -0.3048,1.5748 h -1.64253 l 0.28786,-1.5748 z m 4.3688,-1.642533 h -2.20133 l 0.57573,-3.048 h -1.81187 l -0.57573,3.048 h -1.64253 l 0.57573,-3.048 h -1.778 l -0.59267,3.048 h -2.286 l -0.3556,1.642533 h 2.30294 l -0.32174,1.5748 h -2.286 l -0.3048,1.608666 h 2.26907 l -0.64347,3.268134 h 1.79494 l 0.62653,-3.268134 h 1.6764 l -0.6604,3.268134 h 1.84573 l 0.62654,-3.268134 h 2.25213 l 0.3048,-1.608666 h -2.2352 l 0.28787,-1.5748 h 2.20133 z"
         style="font-style:normal;font-variant:normal;font-weight:bold;font-stretch:normal;font-size:16.93333244px;line-height:1.10000002;font-family:UIBsans;-inkscape-font-specification:'UIBsans Bold';fill:#ffffff;fill-opacity:1;stroke-width:0.26458332"
         id="path6029" />
      <path
         d="m 278.85665,43.637929 -2.70933,0.440267 v 6.790266 c 0,1.6256 -0.6604,2.286 -1.9304,2.286 -1.3716,0 -2.04893,-0.643467 -2.04893,-2.286 v -6.925733 h -2.6924 v 7.027333 c 0,3.318933 1.778,4.436533 4.69053,4.436533 2.8956,0 4.69053,-1.151466 4.69053,-4.436533 z"
         style="font-style:normal;font-variant:normal;font-weight:bold;font-stretch:normal;font-size:16.93333244px;line-height:1.10000002;font-family:UIBsans;-inkscape-font-specification:'UIBsans Bold';fill:#ffffff;fill-opacity:1;stroke-width:0.26458332"
         id="path6031" />
      <path
         d="m 284.16446,55.118729 v -11.176 h -2.77707 v 11.176 z"
         style="font-style:normal;font-variant:normal;font-weight:bold;font-stretch:normal;font-size:16.93333244px;line-height:1.10000002;font-family:UIBsans;-inkscape-font-specification:'UIBsans Bold';fill:#ffffff;fill-opacity:1;stroke-width:0.26458332"
         id="path6033" />
      <path
         d="m 295.20711,52.019929 c 0,-1.557867 -0.88053,-2.506133 -2.04893,-2.777067 0.99906,-0.220133 1.74413,-1.151466 1.74413,-2.4384 0,-2.235199 -1.91347,-2.861733 -3.6576,-2.861733 h -4.30107 v 11.176 h 4.65667 c 2.3876,0 3.6068,-1.253067 3.6068,-3.0988 z m -3.2004,-4.792133 c 0,0.931333 -0.54187,1.3716 -1.3716,1.3716 h -0.9144 v -2.6924 h 1.016 c 0.72813,0 1.27,0.389466 1.27,1.3208 z m 0.32173,4.487333 c 0,1.049866 -0.7112,1.439333 -1.59173,1.439333 h -1.016 v -2.980266 h 1.016 c 0.98213,0 1.59173,0.5588 1.59173,1.540933 z"
         style="font-style:normal;font-variant:normal;font-weight:bold;font-stretch:normal;font-size:16.93333244px;line-height:1.10000002;font-family:UIBsans;-inkscape-font-specification:'UIBsans Bold';fill:#ffffff;fill-opacity:1;stroke-width:0.26458332"
         id="path6035" />
      <path
         d="m 304.83636,56.608862 v -1.490133 h -9.16094 v 1.490133 z"
         style="font-style:normal;font-variant:normal;font-weight:bold;font-stretch:normal;font-size:16.93333244px;line-height:1.10000002;font-family:UIBsans;-inkscape-font-specification:'UIBsans Bold';fill:#ffffff;fill-opacity:1;stroke-width:0.26458332"
         id="path6037" />
      <path
         d="m 260.50145,71.916595 c -1.15147,0 -2.54,-0.6096 -2.54,-0.6096 l -0.57573,1.964266 c 0,0 1.18533,0.728134 3.302,0.728134 2.45533,0 4.58893,-1.049867 4.58893,-3.894667 0,-2.7432 -2.77707,-3.318933 -4.572,-3.471333 l 0.18627,-1.9304 h 3.6576 l 0.18626,-2.0828 h -6.16373 l -0.47413,5.8928 c 0.23706,-0.01693 0.52493,-0.03387 0.84666,-0.03387 2.82787,0 3.82694,0.7112 3.82694,1.794934 0,1.0668 -0.762,1.642533 -2.26907,1.642533 z"
         style="font-style:normal;font-variant:normal;font-weight:bold;font-stretch:normal;font-size:16.93333244px;line-height:1.10000002;font-family:UIBsans;-inkscape-font-specification:'UIBsans Bold';fill:#ffffff;fill-opacity:1;stroke-width:0.26458332"
         id="path6039" />
      <path
         d="m 272.83394,71.544062 c 0,-1.6256 -0.79586,-2.048934 -2.31986,-2.6416 -0.74507,-0.3048 -1.28694,-0.541867 -1.28694,-0.999067 0,-0.423333 0.32174,-0.7112 0.94827,-0.7112 1.20227,0 2.0828,0.626533 2.09973,0.643467 l 0.64347,-1.811867 c 0,0 -0.94827,-0.592667 -2.8956,-0.592667 -1.84573,0 -3.36973,0.745067 -3.36973,2.472267 0,2.573867 3.62373,2.4892 3.62373,3.623733 0,0.440267 -0.32173,0.728133 -0.94827,0.728133 -1.08373,0 -2.15053,-0.643466 -2.31986,-0.761999 l -0.6096,1.811866 c 0.16933,0.1016 1.30386,0.7112 3.23426,0.7112 1.99814,0 3.2004,-0.9652 3.2004,-2.472266 z"
         style="font-style:normal;font-variant:normal;font-weight:bold;font-stretch:normal;font-size:16.93333244px;line-height:1.10000002;font-family:UIBsans;-inkscape-font-specification:'UIBsans Bold';fill:#ffffff;fill-opacity:1;stroke-width:0.26458332"
         id="path6041" />
      <path
         d="m 281.25748,70.189395 0.27094,-0.931333 c -0.0508,-2.116667 -0.89747,-3.826934 -3.48827,-3.826934 -2.3876,0 -4.18253,1.3716 -4.18253,4.284134 0,2.743199 1.20226,4.301066 4.09786,4.301066 2.06587,0 3.57294,-0.778933 3.57294,-0.778933 l -0.72814,-1.794933 c 0,0.01693 -1.04986,0.609599 -2.42146,0.609599 -1.2192,0 -1.76107,-0.728133 -1.76107,-1.862666 z m -3.31893,-3.048 c 0.72813,0 1.0668,0.541867 1.0668,1.710267 h -2.35373 c 0.0677,-1.1176 0.52493,-1.710267 1.28693,-1.710267 z"
         style="font-style:normal;font-variant:normal;font-weight:bold;font-stretch:normal;font-size:16.93333244px;line-height:1.10000002;font-family:UIBsans;-inkscape-font-specification:'UIBsans Bold';fill:#ffffff;fill-opacity:1;stroke-width:0.26458332"
         id="path6043" />
      <path
         d="m 287.55351,68.529928 c 0,0.9144 -0.3048,1.3716 -1.04987,1.3716 -0.72813,0 -1.0668,-0.440266 -1.0668,-1.3716 0,-0.931333 0.32173,-1.456266 1.04987,-1.456266 0.72813,0 1.0668,0.524933 1.0668,1.456266 z m -0.9652,3.014134 c 1.778,0 3.53906,-0.7112 3.53906,-3.081867 0,-0.643467 -0.32173,-1.27 -0.4064,-1.405467 l 1.23614,-0.1016 0.22013,-1.557866 -2.8448,0.389466 c -0.11853,-0.0508 -0.84667,-0.3556 -1.91347,-0.3556 -2.20133,0 -3.69146,1.134534 -3.69146,3.217334 0,0.948266 0.508,1.761066 1.25306,2.218266 -0.72813,0.4064 -1.3208,0.982133 -1.3208,1.8796 0,0.897467 0.8636,1.185333 0.94827,1.202267 -0.254,0.135466 -1.10067,0.6604 -1.10067,1.6764 0,1.557866 1.55787,2.167466 3.89467,2.167466 2.57387,0 4.60587,-0.694266 4.60587,-2.794 0,-1.405466 -0.74507,-2.4384 -2.6416,-2.4384 h -2.26907 c -0.52493,0 -1.1684,-0.01693 -1.1684,-0.474133 0,-0.389466 0.52493,-0.6096 0.6096,-0.6604 0.0847,0.03387 0.54187,0.118534 1.04987,0.118534 z m 1.8796,3.505199 c 0,0.931334 -0.9144,1.0668 -1.94734,1.0668 -0.79586,0 -1.778,-0.135466 -1.778,-0.948266 0,-0.7112 0.47414,-0.897467 0.47414,-0.897467 h 1.9304 c 0.88053,0 1.3208,0.118533 1.3208,0.778933 z"
         style="font-style:normal;font-variant:normal;font-weight:bold;font-stretch:normal;font-size:16.93333244px;line-height:1.10000002;font-family:UIBsans;-inkscape-font-specification:'UIBsans Bold';fill:#ffffff;fill-opacity:1;stroke-width:0.26458332"
         id="path6045" />
      <path
         d="m 294.96978,73.745395 v -11.8364 l -2.76013,0.440267 v 11.396133 z"
         style="font-style:normal;font-variant:normal;font-weight:bold;font-stretch:normal;font-size:16.93333244px;line-height:1.10000002;font-family:UIBsans;-inkscape-font-specification:'UIBsans Bold';fill:#ffffff;fill-opacity:1;stroke-width:0.26458332"
         id="path6047" />
      <path
         d="m 303.78014,70.189395 0.27093,-0.931333 c -0.0508,-2.116667 -0.89747,-3.826934 -3.48827,-3.826934 -2.3876,0 -4.18253,1.3716 -4.18253,4.284134 0,2.743199 1.20227,4.301066 4.09787,4.301066 2.06586,0 3.57293,-0.778933 3.57293,-0.778933 l -0.72813,-1.794933 c 0,0.01693 -1.04987,0.609599 -2.42147,0.609599 -1.2192,0 -1.76107,-0.728133 -1.76107,-1.862666 z m -3.31894,-3.048 c 0.72814,0 1.0668,0.541867 1.0668,1.710267 h -2.35373 c 0.0677,-1.1176 0.52493,-1.710267 1.28693,-1.710267 z"
         style="font-style:normal;font-variant:normal;font-weight:bold;font-stretch:normal;font-size:16.93333244px;line-height:1.10000002;font-family:UIBsans;-inkscape-font-specification:'UIBsans Bold';fill:#ffffff;fill-opacity:1;stroke-width:0.26458332"
         id="path6049" />
      <path
         d="m 311.39696,71.544062 c 0,-1.6256 -0.79586,-2.048934 -2.31986,-2.6416 -0.74507,-0.3048 -1.28694,-0.541867 -1.28694,-0.999067 0,-0.423333 0.32174,-0.7112 0.94827,-0.7112 1.20227,0 2.0828,0.626533 2.09973,0.643467 l 0.64347,-1.811867 c 0,0 -0.94827,-0.592667 -2.8956,-0.592667 -1.84573,0 -3.36973,0.745067 -3.36973,2.472267 0,2.573867 3.62373,2.4892 3.62373,3.623733 0,0.440267 -0.32173,0.728133 -0.94827,0.728133 -1.08373,0 -2.15053,-0.643466 -2.31986,-0.761999 l -0.6096,1.811866 c 0.16933,0.1016 1.30386,0.7112 3.23426,0.7112 1.99814,0 3.2004,-0.9652 3.2004,-2.472266 z"
         style="font-style:normal;font-variant:normal;font-weight:bold;font-stretch:normal;font-size:16.93333244px;line-height:1.10000002;font-family:UIBsans;-inkscape-font-specification:'UIBsans Bold';fill:#ffffff;fill-opacity:1;stroke-width:0.26458332"
         id="path6051" />
      <path
         d="m 321.1413,75.235528 v -1.490133 h -9.16093 v 1.490133 z"
         style="font-style:normal;font-variant:normal;font-weight:bold;font-stretch:normal;font-size:16.93333244px;line-height:1.10000002;font-family:UIBsans;-inkscape-font-specification:'UIBsans Bold';fill:#ffffff;fill-opacity:1;stroke-width:0.26458332"
         id="path6053" />
      <path
         d="m 266.39425,89.408728 0.3048,-1.9304 h -1.55787 v -2.556933 l -2.31986,0.4572 v 2.116666 h -2.8956 l 3.7592,-6.231466 -1.74414,-0.762 -4.43653,6.942666 v 1.964267 h 5.30013 v 2.963333 h 2.3368 v -2.963333 z"
         style="font-style:normal;font-variant:normal;font-weight:bold;font-stretch:normal;font-size:16.93333244px;line-height:1.10000002;font-family:UIBsans;-inkscape-font-specification:'UIBsans Bold';fill:#ffffff;fill-opacity:1;stroke-width:0.26458332"
         id="path6055" />
      <path
         d="m 272.80219,80.975928 c -3.48826,0 -4.7244,2.4892 -4.7244,5.825066 0,3.386667 1.27,5.825067 4.7244,5.825067 3.43747,0 4.63974,-2.404533 4.63974,-5.723467 0,-3.386666 -1.08374,-5.926666 -4.63974,-5.926666 z m -0.0339,2.0828 c 1.89653,0 2.15053,1.9812 2.15053,3.742266 0,1.591734 -0.18627,3.742267 -2.15053,3.742267 -1.89654,0 -2.15054,-1.9304 -2.16747,-3.742267 0,-1.557866 0.22013,-3.742266 2.16747,-3.742266 z"
         style="font-style:normal;font-variant:normal;font-weight:bold;font-stretch:normal;font-size:16.93333244px;line-height:1.10000002;font-family:UIBsans;-inkscape-font-specification:'UIBsans Bold';fill:#ffffff;fill-opacity:1;stroke-width:0.26458332"
         id="path6057" />
      <path
         d="m 283.07279,90.289261 c 0,0 -0.47414,0.745067 -1.20227,0.745067 -0.508,0 -0.69427,-0.321734 -0.69427,-0.778934 0,-0.423333 0.16934,-1.3208 1.89654,-1.337733 z m 2.7432,2.0828 v -5.4864 c 0,-1.8288 -1.23614,-2.827866 -3.36974,-2.827866 -2.20133,0 -3.48826,0.829733 -3.556,0.897466 l 0.69427,1.6764 c 0,0 1.0668,-0.6604 2.1844,-0.6604 0.77893,0 1.30387,0.220133 1.30387,0.948267 v 0.677333 c -4.23334,0 -4.43654,2.1336 -4.43654,2.9464 0,1.303867 0.8636,2.099733 2.286,2.099733 1.76107,0 2.45534,-1.100666 2.45534,-1.100666 l 0.3048,0.829733 z"
         style="font-style:normal;font-variant:normal;font-weight:bold;font-stretch:normal;font-size:16.93333244px;line-height:1.10000002;font-family:UIBsans;-inkscape-font-specification:'UIBsans Bold';fill:#ffffff;fill-opacity:1;stroke-width:0.26458332"
         id="path6059" />
      <path
         d="m 295.48175,92.372061 v -5.672667 c 0,-1.998133 -1.35467,-2.641599 -2.7432,-2.641599 -1.43934,0 -2.35374,0.9144 -2.35374,0.931333 l -0.42333,-0.931333 -2.16747,0.440266 v 7.874 h 2.76014 v -5.503333 c -0.0169,-0.01693 0.5588,-0.846667 1.30386,-0.846667 0.6096,0 0.8636,0.372533 0.8636,1.1684 v 5.1816 z"
         style="font-style:normal;font-variant:normal;font-weight:bold;font-stretch:normal;font-size:16.93333244px;line-height:1.10000002;font-family:UIBsans;-inkscape-font-specification:'UIBsans Bold';fill:#ffffff;fill-opacity:1;stroke-width:0.26458332"
         id="path6061" />
      <path
         d="m 304.81889,84.294861 h -2.6924 l -1.33773,4.318 -1.59173,-4.555066 -2.5908,0.440266 2.92946,6.7564 c -0.64346,1.524 -1.1684,2.269066 -2.47226,3.674533 l 2.0828,1.490133 c 1.13453,-1.3208 2.1844,-2.624666 2.794,-4.301066 z"
         style="font-style:normal;font-variant:normal;font-weight:bold;font-stretch:normal;font-size:16.93333244px;line-height:1.10000002;font-family:UIBsans;-inkscape-font-specification:'UIBsans Bold';fill:#ffffff;fill-opacity:1;stroke-width:0.26458332"
         id="path6063" />
      <path
         d="m 311.69462,90.170728 c 0,-1.6256 -0.79587,-2.048934 -2.31987,-2.6416 -0.74506,-0.3048 -1.28693,-0.541867 -1.28693,-0.999067 0,-0.423333 0.32173,-0.7112 0.94827,-0.7112 1.20226,0 2.0828,0.626533 2.09973,0.643467 l 0.64347,-1.811867 c 0,0 -0.94827,-0.592666 -2.8956,-0.592666 -1.84574,0 -3.36974,0.745066 -3.36974,2.472266 0,2.573867 3.62374,2.4892 3.62374,3.623733 0,0.440267 -0.32174,0.728134 -0.94827,0.728134 -1.08373,0 -2.15053,-0.643467 -2.31987,-0.762 l -0.6096,1.811866 c 0.16934,0.1016 1.30387,0.7112 3.23427,0.7112 1.99813,0 3.2004,-0.9652 3.2004,-2.472266 z"
         style="font-style:normal;font-variant:normal;font-weight:bold;font-stretch:normal;font-size:16.93333244px;line-height:1.10000002;font-family:UIBsans;-inkscape-font-specification:'UIBsans Bold';fill:#ffffff;fill-opacity:1;stroke-width:0.26458332"
         id="path6065" />
    </g>
  </g>
</svg>
