<?xml version="1.0" encoding="UTF-8" standalone="no"?>
<!-- Created with Inkscape (http://www.inkscape.org/) -->

<svg
   xmlns:dc="http://purl.org/dc/elements/1.1/"
   xmlns:cc="http://creativecommons.org/ns#"
   xmlns:rdf="http://www.w3.org/1999/02/22-rdf-syntax-ns#"
   xmlns:svg="http://www.w3.org/2000/svg"
   xmlns="http://www.w3.org/2000/svg"
   xmlns:sodipodi="http://sodipodi.sourceforge.net/DTD/sodipodi-0.dtd"
   xmlns:inkscape="http://www.inkscape.org/namespaces/inkscape"
   width="145.10468mm"
   height="74.613884mm"
   viewBox="0 0 145.10467 74.613884"
   version="1.1"
   id="svg8"
   inkscape:version="0.92.2 (5c3e80d, 2017-08-06)"
   sodipodi:docname="nologo-mobile-white.svg">
  <defs
     id="defs2" />
  <sodipodi:namedview
     id="base"
     pagecolor="#ffffff"
     bordercolor="#666666"
     borderopacity="1.0"
     inkscape:pageopacity="0.0"
     inkscape:pageshadow="2"
     inkscape:zoom="0.7"
     inkscape:cx="-135.9271"
     inkscape:cy="-130.49632"
     inkscape:document-units="mm"
     inkscape:current-layer="layer1"
     showgrid="false"
     inkscape:window-width="1920"
     inkscape:window-height="1017"
     inkscape:window-x="-8"
     inkscape:window-y="-8"
     inkscape:window-maximized="1"
     fit-margin-top="0"
     fit-margin-left="0"
     fit-margin-right="0"
     fit-margin-bottom="0"
     inkscape:pagecheckerboard="true"
     showguides="true">
    <inkscape:grid
       type="xygrid"
       id="grid5250"
       originx="-88.603382"
       originy="-0.010156893" />
  </sodipodi:namedview>
  <metadata
     id="metadata5">
    <rdf:RDF>
      <cc:Work
         rdf:about="">
        <dc:format>image/svg+xml</dc:format>
        <dc:type
           rdf:resource="http://purl.org/dc/dcmitype/StillImage" />
        <dc:title></dc:title>
      </cc:Work>
    </rdf:RDF>
  </metadata>
  <g
     inkscape:groupmode="layer"
     id="layer4"
     inkscape:label="Fondo"
     style="display:none"
     transform="translate(-80.606669,-32.460169)">
    <g
       id="layer1-6"
       inkscape:label="Fondo"
       style="display:inline"
       transform="matrix(0.3527778,0,0,0.3527778,-39.642325,-34.786718)">
      <path
         inkscape:connector-curvature="0"
         id="path283"
         d="M 795.27734,448.64063 H 46.609375 v -302 H 795.27734 Z m 0,0"
         style="fill:#ae1e1e;fill-opacity:1;fill-rule:nonzero;stroke:none"
         inkscape:export-xdpi="13.75"
         inkscape:export-ydpi="13.75" />
    </g>
  </g>
  <g
     inkscape:label="Layer 1"
     inkscape:groupmode="layer"
     id="layer1"
     style="display:inline"
     transform="translate(-80.606669,-32.460169)">
    <g
       id="layer2"
       inkscape:label="Lletres"
       style="display:inline"
       transform="matrix(0.35277779,0,0,0.35277779,-39.642326,-34.786718)"
       mask="none"
       inkscape:export-xdpi="106.55"
       inkscape:export-ydpi="106.55">
      <path
         inkscape:connector-curvature="0"
         id="path285"
         d="m 343.23438,402.125 h -2.3711 V 190.62109 h 2.3711 z m 0,0"
         style="fill:#ffffff;fill-opacity:1;fill-rule:nonzero;stroke:none"
         inkscape:export-xdpi="35.540001"
         inkscape:export-ydpi="35.540001" />
      <path
         inkscape:connector-curvature="0"
         id="path287"
         d="m 517.66406,346.47656 4.13672,0.76172 v 1.33985 c -1.92578,-0.0938 -4.03906,-0.14454 -6.01172,-0.14454 -2.01953,0 -4.13672,0.0508 -6.01172,0.14454 v -1.33985 l 4.08594,-0.76172 v -27.35937 l -4.08594,-0.76563 v -1.33593 c 1.875,0.0938 3.99219,0.14062 6.01172,0.14062 1.97266,0 4.08594,-0.0469 6.01172,-0.14062 v 1.33593 l -4.13672,0.76563 z m 0,0"
         style="fill:#ffffff;fill-opacity:1;fill-rule:nonzero;stroke:none"
         inkscape:export-xdpi="35.540001"
         inkscape:export-ydpi="35.540001" />
      <path
         inkscape:connector-curvature="0"
         id="path289"
         d="m 532.71484,346.47656 4.08594,0.76172 v 1.33985 c -3.74609,-0.19141 -8.07812,-0.19141 -11.875,0 v -1.33985 l 4.13672,-0.76172 v -28.69922 l -3.65625,-0.76171 v -1.33985 c 2.26172,0 4.61719,-0.1914 6.82812,-0.52734 h 0.48047 z m 0,0"
         style="fill:#ffffff;fill-opacity:1;fill-rule:nonzero;stroke:none"
         inkscape:export-xdpi="35.540001"
         inkscape:export-ydpi="35.540001" />
      <path
         inkscape:connector-curvature="0"
         id="path291"
         d="m 546.41797,346.47656 4.08984,0.76172 v 1.33985 c -3.75,-0.19141 -8.07812,-0.19141 -11.8789,0 v -1.33985 l 4.13671,-0.76172 v -28.69922 l -3.65625,-0.76171 v -1.33985 c 2.26172,0 4.61719,-0.1914 6.82813,-0.52734 h 0.48047 z m 0,0"
         style="fill:#ffffff;fill-opacity:1;fill-rule:nonzero;stroke:none"
         inkscape:export-xdpi="35.540001"
         inkscape:export-ydpi="35.540001" />
      <path
         inkscape:connector-curvature="0"
         id="path293"
         d="m 556.56641,334.85156 11.4414,-0.76562 c 0,0 0.14453,-0.37891 0.14453,-2.00781 0,-3.30079 -1.97265,-5.02344 -4.375,-5.02344 -3.94531,0 -6.54297,3.49609 -7.21093,7.79687 m -3.75391,2.73047 c 0,-8.13281 5.48437,-11.96094 11.20703,-11.96094 3.84375,0 7.93359,1.62891 7.93359,7.46094 l -0.67578,2.96875 h -14.90625 l -0.0469,0.85938 c 0,6.16797 2.78906,9.27734 7.88672,9.27734 2.98047,0 5.28906,-0.66797 7.30859,-1.86719 L 572,345.46875 c -1.39453,1.19922 -4.61719,3.58984 -8.94141,3.58984 -6.78515,0 -10.24609,-5.02343 -10.24609,-11.47656"
         style="fill:#ffffff;fill-opacity:1;fill-rule:nonzero;stroke:none"
         inkscape:export-xdpi="35.540001"
         inkscape:export-ydpi="35.540001" />
      <path
         inkscape:connector-curvature="0"
         id="path295"
         d="m 587.76953,343.07813 c 0,-3.10938 -2.88281,-3.53907 -5.48047,-4.54297 -3.55469,-1.38672 -6.39453,-2.39063 -6.39453,-6.45703 0,-3.82422 3.03125,-6.45704 7.74219,-6.45704 2.16406,0 4.5664,0.57813 6.39453,1.48438 l -1.39453,5.88281 -1.39453,-0.23828 -0.33594,-4.78516 c 0,0 -0.96484,-0.91015 -3.51172,-0.91015 -2.73828,0 -4.32422,1.4375 -4.32422,3.82812 0,3.10938 2.73828,3.44532 5.23828,4.30469 3.41407,1.19531 7.11719,2.39453 7.11719,6.69531 0,4.54297 -4.23047,7.17578 -8.55859,7.17578 -4.85938,0 -6.97266,-1.48437 -6.97266,-1.48437 l 1.39453,-6.12109 1.39453,0.23828 0.33594,4.78515 c 0,0 1.01172,1.14453 3.89453,1.14453 3.22266,0 4.85547,-1.91015 4.85547,-4.54296"
         style="fill:#ffffff;fill-opacity:1;fill-rule:nonzero;stroke:none"
         inkscape:export-xdpi="35.540001"
         inkscape:export-ydpi="35.540001" />
      <path
         inkscape:connector-curvature="0"
         id="path297"
         d="m 614.16797,332.17578 v 14.53906 h 4.90625 c 5.76953,0 7.40234,-3.49218 7.40234,-7.26953 0,-4.11328 -2.5,-7.26953 -8.79687,-7.26953 z m 2.59765,-1.86719 c 6.34766,0 8.32032,-1.53125 8.32032,-5.59375 0,-3.73046 -1.58594,-5.83593 -6.92578,-5.83593 h -3.99219 v 11.42968 z m 6.20313,0.71875 c 5.57812,1.53125 7.55078,5.02344 7.55078,8.65625 0,5.07032 -3.41797,8.99219 -10.19531,8.99219 -3.46094,0 -5.96094,-0.23828 -8.46094,-0.23828 -2.30859,0 -3.32031,0 -5.57812,0.14063 v -1.33594 l 4.03906,-0.76953 v -27.35547 l -4.03906,-0.76172 v -1.34375 c 1.39453,0.0977 2.78906,0.14453 4.18359,0.14453 2.54687,0 4.90234,-0.19141 8.125,-0.19141 6.875,0 10.57812,2.48829 10.57812,7.27344 0,3.77735 -2.69531,5.6875 -6.20312,6.78906"
         style="fill:#ffffff;fill-opacity:1;fill-rule:nonzero;stroke:none"
         inkscape:export-xdpi="35.540001"
         inkscape:export-ydpi="35.540001" />
      <path
         inkscape:connector-curvature="0"
         id="path299"
         d="m 640.71094,339.53906 c -2.59375,0 -3.21875,2.00782 -3.21875,3.58985 0,1.96093 0.8164,3.48828 3.125,3.48828 3.41015,0 5.43359,-1.76953 6.00781,-2.29297 v -5.07031 c -0.33203,0.0938 -1.10156,0.33593 -2.30469,0.33593 -1.875,0 -2.64844,-0.0508 -3.60937,-0.0508 m 5.91406,-6.16797 c 0,-3.82812 -1.58594,-5.83593 -4.375,-5.83593 -2.30469,0 -3.79688,1.43359 -3.79688,1.43359 l -0.33593,4.92578 -1.30078,0.33594 -2.16016,-4.11328 c 1.96875,-2.29297 5.91406,-4.4961 10,-4.4961 3.70312,0 5.71875,2.39454 5.71875,6.45704 v 14.39843 l 3.51172,0.76563 v 1.33594 c -1.05469,-0.0469 -2.06641,-0.0977 -3.07813,-0.0977 -1.24609,0 -2.44922,0.0508 -3.65234,0.0977 l -0.53125,-3.0586 c -1.00781,1.14453 -3.50781,3.53906 -7.01953,3.53906 -3.60547,0 -5.625,-2.48828 -5.625,-6.07421 0,-2.96875 1.96875,-5.3086 5.19531,-5.3086 2.64453,0 4.90234,0.85938 7.44922,0.6211 z m 0,0"
         style="fill:#ffffff;fill-opacity:1;fill-rule:nonzero;stroke:none"
         inkscape:export-xdpi="35.540001"
         inkscape:export-ydpi="35.540001" />
      <path
         inkscape:connector-curvature="0"
         id="path301"
         d="m 664.32422,346.47656 4.08203,0.76172 v 1.33985 c -3.74609,-0.19141 -8.07422,-0.19141 -11.875,0 v -1.33985 l 4.13672,-0.76172 v -28.69922 l -3.65625,-0.76171 v -1.33985 c 2.26172,0 4.61719,-0.1914 6.83203,-0.52734 h 0.48047 z m 0,0"
         style="fill:#ffffff;fill-opacity:1;fill-rule:nonzero;stroke:none"
         inkscape:export-xdpi="35.540001"
         inkscape:export-ydpi="35.540001" />
      <path
         inkscape:connector-curvature="0"
         id="path303"
         d="m 674.46875,334.85156 11.44531,-0.76562 c 0,0 0.14453,-0.37891 0.14453,-2.00781 0,-3.30079 -1.97656,-5.02344 -4.3789,-5.02344 -3.94532,0 -6.53907,3.49609 -7.21094,7.79687 m -3.75391,2.73047 c 0,-8.13281 5.48438,-11.96094 11.20703,-11.96094 3.84375,0 7.9375,1.62891 7.9375,7.46094 l -0.67968,2.96875 h -14.90625 l -0.0469,0.85938 c 0,6.16797 2.78906,9.27734 7.88672,9.27734 2.98438,0 5.28906,-0.66797 7.30859,-1.86719 l 0.48047,1.14844 c -1.39453,1.19922 -4.61718,3.58984 -8.9414,3.58984 -6.78125,0 -10.2461,-5.02343 -10.2461,-11.47656"
         style="fill:#ffffff;fill-opacity:1;fill-rule:nonzero;stroke:none"
         inkscape:export-xdpi="35.540001"
         inkscape:export-ydpi="35.540001" />
      <path
         inkscape:connector-curvature="0"
         id="path305"
         d="m 700.09766,339.53906 c -2.59375,0 -3.22266,2.00782 -3.22266,3.58985 0,1.96093 0.81641,3.48828 3.125,3.48828 3.41406,0 5.43359,-1.76953 6.01172,-2.29297 v -5.07031 c -0.33594,0.0938 -1.10938,0.33593 -2.3086,0.33593 -1.875,0 -2.64453,-0.0508 -3.60546,-0.0508 m 5.91406,-6.16797 c 0,-3.82812 -1.58594,-5.83593 -4.375,-5.83593 -2.3086,0 -3.80078,1.43359 -3.80078,1.43359 l -0.33203,4.92578 -1.30469,0.33594 -2.16016,-4.11328 c 1.97266,-2.29297 5.91406,-4.4961 10.00391,-4.4961 3.69922,0 5.71875,2.39454 5.71875,6.45704 v 14.39843 l 3.51172,0.76563 v 1.33594 c -1.0586,-0.0469 -2.06641,-0.0977 -3.07813,-0.0977 -1.25,0 -2.45312,0.0508 -3.65625,0.0977 l -0.52734,-3.0586 c -1.01172,1.14453 -3.51172,3.53906 -7.02344,3.53906 -3.60547,0 -5.625,-2.48828 -5.625,-6.07421 0,-2.96875 1.97266,-5.3086 5.19531,-5.3086 2.64453,0 4.90625,0.85938 7.45313,0.6211 z m 0,0"
         style="fill:#ffffff;fill-opacity:1;fill-rule:nonzero;stroke:none"
         inkscape:export-xdpi="35.540001"
         inkscape:export-ydpi="35.540001" />
      <path
         inkscape:connector-curvature="0"
         id="path307"
         d="m 729.66797,327.91797 c -3.89063,0 -5.96094,3.875 -5.96094,3.875 v 14.68359 l 5.05078,0.76563 v 1.33594 c -3.7539,-0.19141 -9.04297,-0.19141 -12.83984,0 v -1.33594 l 4.13281,-0.76563 v -18.22265 l -3.65234,-0.76563 v -1.33984 c 2.26172,0 4.61718,-0.19141 6.82812,-0.52735 h 0.48047 v 4.40235 h 0.0977 c 0.0469,0.0469 2.25781,-4.40235 6.68359,-4.40235 2.16406,0 3.02734,0.95704 3.02734,0.95704 l -1.82812,6.07421 -1.44141,-0.14062 z m 0,0"
         style="fill:#ffffff;fill-opacity:1;fill-rule:nonzero;stroke:none"
         inkscape:export-xdpi="35.540001"
         inkscape:export-ydpi="35.540001" />
      <path
         inkscape:connector-curvature="0"
         id="path309"
         d="m 748.375,343.07813 c 0,-3.10938 -2.88672,-3.53907 -5.48438,-4.54297 -3.55468,-1.38672 -6.39062,-2.39063 -6.39062,-6.45703 0,-3.82422 3.02734,-6.45704 7.73828,-6.45704 2.16406,0 4.57031,0.57813 6.39453,1.48438 l -1.39453,5.88281 -1.39453,-0.23828 -0.33203,-4.78516 c 0,0 -0.96485,-0.91015 -3.51563,-0.91015 -2.73828,0 -4.32422,1.4375 -4.32422,3.82812 0,3.10938 2.73829,3.44532 5.24219,4.30469 3.41406,1.19531 7.11328,2.39453 7.11328,6.69531 0,4.54297 -4.23047,7.17578 -8.55468,7.17578 -4.85938,0 -6.97266,-1.48437 -6.97266,-1.48437 l 1.39453,-6.12109 1.39063,0.23828 0.33593,4.78515 c 0,0 1.01172,1.14453 3.89844,1.14453 3.21875,0 4.85547,-1.91015 4.85547,-4.54296"
         style="fill:#ffffff;fill-opacity:1;fill-rule:nonzero;stroke:none"
         inkscape:export-xdpi="35.540001"
         inkscape:export-ydpi="35.540001" />
      <path
         inkscape:connector-curvature="0"
         id="path311"
         d="m 399.73828,344.17969 v -10.1875 c 0,-5.5 -3.17187,-6.9375 -5.48047,-6.9375 -5,0 -7.5039,3.82812 -7.5039,10.28515 0,6.21875 2.98047,9.32813 6.82812,9.32813 2.3086,0 4.8086,-1.24609 6.15625,-2.48828 m 3.65625,2.15234 4.56641,0.6211 v 1.33984 c -2.74219,0.0469 -5.14453,0.38281 -7.74219,0.76562 h -0.48047 v -3.34765 h -0.19531 c 0,0 -2.78906,3.34765 -7.59375,3.34765 -5.91797,0 -9.08984,-4.54687 -9.08984,-11.71875 0,-7.65234 5.72265,-11.71875 11.63671,-11.71875 1.6836,0 3.89454,0.48047 5.24219,1.4336 v -9.27735 l -3.65625,-0.76171 v -1.33985 c 2.3086,0 4.61719,-0.1914 6.87891,-0.52734 h 0.43359 z m 0,0"
         style="fill:#ffffff;fill-opacity:1;fill-rule:nonzero;stroke:none"
         inkscape:export-xdpi="35.540001"
         inkscape:export-ydpi="35.540001" />
      <path
         inkscape:connector-curvature="0"
         id="path313"
         d="m 414.01953,334.85156 11.44531,-0.76562 c 0,0 0.14454,-0.37891 0.14454,-2.00781 0,-3.30079 -1.97266,-5.02344 -4.37891,-5.02344 -3.94141,0 -6.53906,3.49609 -7.21094,7.79687 m -3.75,2.73047 c 0,-8.13281 5.48047,-11.96094 11.20313,-11.96094 3.84765,0 7.93359,1.62891 7.93359,7.46094 l -0.67187,2.96875 h -14.90625 l -0.0508,0.85938 c 0,6.16797 2.78907,9.27734 7.88672,9.27734 2.98438,0 5.28907,-0.66797 7.3086,-1.86719 l 0.48047,1.14844 c -1.39063,1.19922 -4.61329,3.58984 -8.94141,3.58984 -6.78125,0 -10.24219,-5.02343 -10.24219,-11.47656"
         style="fill:#ffffff;fill-opacity:1;fill-rule:nonzero;stroke:none"
         inkscape:export-xdpi="35.540001"
         inkscape:export-ydpi="35.540001" />
      <path
         inkscape:connector-curvature="0"
         id="path315"
         d="m 451.47656,346.47656 4.08985,0.76172 v 1.33985 c -3.75,-0.19141 -8.08203,-0.19141 -11.87891,0 v -1.33985 l 4.13672,-0.76172 v -28.69922 l -3.65625,-0.76171 v -1.33985 c 2.25781,0 4.61719,-0.1914 6.82812,-0.52734 h 0.48047 z m 0,0"
         style="fill:#ffffff;fill-opacity:1;fill-rule:nonzero;stroke:none"
         inkscape:export-xdpi="35.540001"
         inkscape:export-ydpi="35.540001" />
      <path
         inkscape:connector-curvature="0"
         id="path317"
         d="m 461.62109,334.85156 11.44532,-0.76562 c 0,0 0.14453,-0.37891 0.14453,-2.00781 0,-3.30079 -1.97266,-5.02344 -4.375,-5.02344 -3.94531,0 -6.53906,3.49609 -7.21485,7.79687 m -3.75,2.73047 c 0,-8.13281 5.48047,-11.96094 11.20704,-11.96094 3.84375,0 7.92968,1.62891 7.92968,7.46094 l -0.66797,2.96875 h -14.91015 l -0.0469,0.85938 c 0,6.16797 2.78907,9.27734 7.88672,9.27734 2.98047,0 5.28516,-0.66797 7.3086,-1.86719 l 0.48046,1.14844 c -1.39453,1.19922 -4.61718,3.58984 -8.94531,3.58984 -6.77734,0 -10.24219,-5.02343 -10.24219,-11.47656"
         style="fill:#ffffff;fill-opacity:1;fill-rule:nonzero;stroke:none"
         inkscape:export-xdpi="35.540001"
         inkscape:export-ydpi="35.540001" />
      <path
         inkscape:connector-curvature="0"
         id="path319"
         d="m 492.83203,343.07813 c 0,-3.10938 -2.88672,-3.53907 -5.48437,-4.54297 -3.5586,-1.38672 -6.39453,-2.39063 -6.39453,-6.45703 0,-3.82422 3.02734,-6.45704 7.74218,-6.45704 2.16407,0 4.57032,0.57813 6.39453,1.48438 l -1.39453,5.88281 -1.39453,-0.23828 -0.33594,-4.78516 c 0,0 -0.96093,-0.91015 -3.51171,-0.91015 -2.73829,0 -4.32422,1.4375 -4.32422,3.82812 0,3.10938 2.73828,3.44532 5.23828,4.30469 3.41406,1.19531 7.11719,2.39453 7.11719,6.69531 0,4.54297 -4.23047,7.17578 -8.55469,7.17578 -4.86328,0 -6.97656,-1.48437 -6.97656,-1.48437 l 1.39453,-6.12109 1.39453,0.23828 0.33984,4.78515 c 0,0 1.00781,1.14453 3.89063,1.14453 3.22265,0 4.85937,-1.91015 4.85937,-4.54296"
         style="fill:#ffffff;fill-opacity:1;fill-rule:nonzero;stroke:none"
         inkscape:export-xdpi="35.540001"
         inkscape:export-ydpi="35.540001" />
      <path
         inkscape:connector-curvature="0"
         id="path321"
         d="m 405.71875,302.51563 c -14.18359,0 -22.83984,-5.44141 -22.83984,-21.60547 V 246.6875 h 13.10937 v 33.72656 c 0,8 3.29688,11.13282 9.98047,11.13282 6.18359,0 9.39844,-3.21485 9.39844,-11.13282 v -33.0664 l 13.19531,-2.14453 v 35.70703 c 0,15.99609 -8.74219,21.60547 -22.84375,21.60547"
         style="fill:#ffffff;fill-opacity:1;fill-rule:nonzero;stroke:none"
         inkscape:export-xdpi="35.540001"
         inkscape:export-ydpi="35.540001" />
      <path
         inkscape:connector-curvature="0"
         id="path323"
         d="m 458.78516,301.11328 v -25.23437 c 0,-3.875 -1.23438,-5.69141 -4.20313,-5.69141 -3.6289,0 -6.43359,4.04297 -6.35156,4.125 v 26.80078 h -13.44141 v -38.34375 l 10.55469,-2.14453 2.0625,4.53516 c 0,-0.082 4.45313,-4.53516 11.46484,-4.53516 6.76172,0 13.35547,3.13281 13.35547,12.86328 v 27.625 z m 0,0"
         style="fill:#ffffff;fill-opacity:1;fill-rule:nonzero;stroke:none"
         inkscape:export-xdpi="35.540001"
         inkscape:export-ydpi="35.540001" />
      <path
         inkscape:connector-curvature="0"
         id="path325"
         d="m 486.66016,256.74609 c -4.45313,0 -6.84375,-2.71875 -6.84375,-6.51171 0,-3.79297 2.39062,-6.51563 6.84375,-6.51563 4.53515,0 6.84375,2.72266 6.84375,6.51563 0,3.79296 -2.3086,6.51171 -6.84375,6.51171 m -7.09375,44.36719 v -38.34375 l 13.4414,-2.14453 v 40.48828 z m 0,0"
         style="fill:#ffffff;fill-opacity:1;fill-rule:nonzero;stroke:none"
         inkscape:export-xdpi="35.540001"
         inkscape:export-ydpi="35.540001" />
      <path
         inkscape:connector-curvature="0"
         id="path327"
         d="m 522.69531,301.11328 h -13.27343 l -12.94922,-38.34375 12.53515,-2.14453 8.16406,25.80859 7.58594,-24.65625 h 12.86328 z m 0,0"
         style="fill:#ffffff;fill-opacity:1;fill-rule:nonzero;stroke:none"
         inkscape:export-xdpi="35.540001"
         inkscape:export-ydpi="35.540001" />
      <path
         inkscape:connector-curvature="0"
         id="path329"
         d="m 550.06641,277.28125 h 11.29687 c -0.082,-5.69141 -1.73437,-8.24609 -5.19531,-8.24609 -3.54688,0 -5.85547,2.80468 -6.10156,8.24609 m -0.2461,6.51563 c 0,5.35937 2.55469,9.07031 8.49219,9.07031 6.67969,0 11.79297,-2.88672 11.79297,-2.96875 l 3.54297,8.73828 c 0,0 -7.33985,3.79687 -17.39844,3.79687 -14.18359,0 -19.95703,-7.58984 -19.95703,-20.94531 0,-14.18359 8.57812,-20.86328 20.28515,-20.86328 12.78516,0 16.82422,8.24609 17.07032,18.63672 l -1.32032,4.53516 z m 0,0"
         style="fill:#ffffff;fill-opacity:1;fill-rule:nonzero;stroke:none"
         inkscape:export-xdpi="35.540001"
         inkscape:export-ydpi="35.540001" />
      <path
         inkscape:connector-curvature="0"
         id="path331"
         d="m 602.92578,271.50781 c 0,0 -1.57031,-0.74218 -3.54687,-0.74218 -5.03125,0 -7.25782,3.96093 -7.25782,3.96093 v 26.38672 h -13.4414 v -38.34375 l 12.37109,-2.14453 0.32813,5.85547 c 0.98828,-2.72266 5.03125,-5.85547 9.39843,-5.85547 3.38282,0 5.36328,1.23438 5.36328,1.23438 z m 0,0"
         style="fill:#ffffff;fill-opacity:1;fill-rule:nonzero;stroke:none"
         inkscape:export-xdpi="35.540001"
         inkscape:export-ydpi="35.540001" />
      <path
         inkscape:connector-curvature="0"
         id="path333"
         d="m 620.40625,302.43359 c -9.39844,0 -14.92578,-2.96875 -15.75,-3.46484 l 2.96875,-8.82422 c 0.82422,0.57813 6.01953,3.71094 11.29687,3.71094 3.05079,0 4.61719,-1.40234 4.61719,-3.54688 0,-5.52343 -17.64453,-5.11328 -17.64453,-17.64453 0,-8.41015 7.41797,-12.03906 16.41016,-12.03906 9.48047,0 14.10156,2.88281 14.10156,2.88281 l -3.13672,8.82422 c -0.082,-0.082 -4.36719,-3.13281 -10.22266,-3.13281 -3.05078,0 -4.61718,1.40234 -4.61718,3.46484 0,2.22657 2.63672,3.37891 6.26562,4.86328 7.42188,2.88672 11.29688,4.94922 11.29688,12.86329 0,7.33984 -5.85547,12.04296 -15.58594,12.04296"
         style="fill:#ffffff;fill-opacity:1;fill-rule:nonzero;stroke:none"
         inkscape:export-xdpi="35.540001"
         inkscape:export-ydpi="35.540001" />
      <path
         inkscape:connector-curvature="0"
         id="path335"
         d="m 646.78906,256.74609 c -4.45312,0 -6.84375,-2.71875 -6.84375,-6.51171 0,-3.79297 2.39063,-6.51563 6.84375,-6.51563 4.53516,0 6.84766,2.72266 6.84766,6.51563 0,3.79296 -2.3125,6.51171 -6.84766,6.51171 m -7.08984,44.36719 v -38.34375 l 13.4414,-2.14453 v 40.48828 z m 0,0"
         style="fill:#ffffff;fill-opacity:1;fill-rule:nonzero;stroke:none"
         inkscape:export-xdpi="35.540001"
         inkscape:export-ydpi="35.540001" />
      <path
         inkscape:connector-curvature="0"
         id="path337"
         d="m 685.55469,298.14453 c 0,0 -4.3711,4.28906 -12.94922,4.28906 -5.35938,0 -10.39063,-2.72265 -10.39063,-10.14453 v -23.2539 h -5.85156 l 1.48438,-6.4336 4.36718,-0.82422 1.40235,-9.89453 11.54297,-1.32031 v 11.21484 h 9.07421 v 7.25782 h -9.07421 v 19.78906 c 0,2.88672 0.82812,3.71094 2.64062,3.71094 1.40234,0 3.21875,-0.82422 4.45703,-1.73047 z m 0,0"
         style="fill:#ffffff;fill-opacity:1;fill-rule:nonzero;stroke:none"
         inkscape:export-xdpi="35.540001"
         inkscape:export-ydpi="35.540001" />
      <path
         inkscape:connector-curvature="0"
         id="path339"
         d="m 708.23047,284.53906 c -8.41016,0.082 -9.23438,4.45313 -9.23438,6.51172 0,2.22656 0.90625,3.79297 3.37891,3.79297 3.54687,0 5.85547,-3.625 5.85547,-3.625 z m 2.96875,16.57422 -1.48438,-4.04297 c -0.32812,0.33203 -4.12109,5.36328 -11.95703,5.36328 -6.92578,0 -11.13281,-3.8789 -11.13281,-10.22656 0,-3.95703 0.98828,-14.34765 21.60547,-14.34765 v -3.30079 c 0,-3.54296 -2.55469,-4.61718 -6.34766,-4.61718 -5.4414,0 -10.63672,3.21484 -10.63672,3.21484 l -3.38281,-8.16016 c 0.33203,-0.33203 6.59766,-4.37109 17.31641,-4.37109 10.39062,0 16.41015,4.86328 16.41015,13.76953 v 26.71875 z m 0,0"
         style="fill:#ffffff;fill-opacity:1;fill-rule:nonzero;stroke:none"
         inkscape:export-xdpi="35.540001"
         inkscape:export-ydpi="35.540001" />
      <path
         inkscape:connector-curvature="0"
         id="path341"
         d="m 752.18359,298.14453 c 0,0 -4.36718,4.28906 -12.94531,4.28906 -5.35937,0 -10.39062,-2.72265 -10.39062,-10.14453 v -23.2539 h -5.85157 l 1.48438,-6.4336 4.36719,-0.82422 1.40234,-9.89453 11.54687,-1.32031 v 11.21484 h 9.07032 v 7.25782 h -9.07032 v 19.78906 c 0,2.88672 0.82422,3.71094 2.63672,3.71094 1.40235,0 3.21875,-0.82422 4.45313,-1.73047 z m 0,0"
         style="fill:#ffffff;fill-opacity:1;fill-rule:nonzero;stroke:none"
         inkscape:export-xdpi="35.540001"
         inkscape:export-ydpi="35.540001" />
    </g>
  </g>
</svg>
